<svg width="18" height="18" viewBox="0 0 18 18" fill="none" xmlns="http://www.w3.org/2000/svg">
<g clip-path="url(#clip0_712_1718)">
<g clip-path="url(#clip1_712_1718)">
<path fill-rule="evenodd" clip-rule="evenodd" d="M14.7568 14.4317C14.3808 18.3454 12.1411 18.3949 8.91451 18.3949C5.68789 18.3949 4.01976 17.7021 4.01976 14.1807C4.01976 10.5112 5.68789 7.7876 8.91451 7.7876C12.1411 7.7876 14.7568 10.7623 14.7568 14.4317ZM7.36516 11.508C7.36516 12.1707 6.9119 12.7079 6.35278 12.7079C5.79365 12.7079 5.3404 12.1707 5.3404 11.508C5.3404 10.8454 5.79365 10.3082 6.35278 10.3082C6.9119 10.3082 7.36516 10.8454 7.36516 11.508ZM8.97752 12.7079C9.53664 12.7079 9.9899 12.1707 9.9899 11.508C9.9899 10.8454 9.53664 10.3082 8.97752 10.3082C8.4184 10.3082 7.96514 10.8454 7.96514 11.508C7.96514 12.1707 8.4184 12.7079 8.97752 12.7079Z" fill="black"></path>
<ellipse cx="8.67811" cy="11.4329" rx="0.337461" ry="0.449947" fill="black"></ellipse>
<ellipse cx="6.69055" cy="11.4329" rx="0.374956" ry="0.449947" fill="black"></ellipse>
</g>
<path d="M9.83633 2.0134C11.4602 2.0134 12.6116 2.0148 13.4847 2.13218C14.3388 2.247 14.8269 2.46182 15.1826 2.81744C15.5382 3.17307 15.753 3.66122 15.8678 4.5153C15.9852 5.38836 15.9866 6.53984 15.9866 8.16367V9.83633C15.9866 11.4602 15.9852 12.6116 15.8678 13.4847C15.753 14.3388 15.5382 14.8269 15.1826 15.1826C14.8269 15.5382 14.3388 15.753 13.4847 15.8678C12.6116 15.9852 11.4602 15.9866 9.83633 15.9866H8.16367C6.53984 15.9866 5.38836 15.9852 4.5153 15.8678C3.66122 15.753 3.17307 15.5382 2.81744 15.1826C2.46182 14.8269 2.247 14.3388 2.13218 13.4847C2.0148 12.6116 2.0134 11.4602 2.0134 9.83633V8.16367C2.0134 6.53984 2.0148 5.38836 2.13218 4.5153C2.247 3.66122 2.46182 3.17307 2.81744 2.81744C3.17307 2.46182 3.66122 2.247 4.5153 2.13218C5.38836 2.0148 6.53984 2.0134 8.16367 2.0134H9.83633Z" stroke="black" stroke-width="1.31976"></path>
</g>
<defs>
<clipPath id="clip0_712_1718">
<rect width="15.293" height="15.293" fill="white" transform="translate(1.35352 1.35352)"></rect>
</clipPath>
<clipPath id="clip1_712_1718">
<rect width="12.5068" height="13.6204" fill="white" transform="translate(2.71553 2.15771)"></rect>
</clipPath>
</defs>
</svg>